<svg width="52" height="81" viewBox="0 0 52 81" fill="none" xmlns="http://www.w3.org/2000/svg">
<path d="M9.70741 34.2283C10.7284 37.4424 9.43928 40.2344 7.47995 40.8568C5.52063 41.4793 2.85651 39.9431 1.83549 36.729C0.814468 33.515 2.10362 30.7229 4.06295 30.1005C6.02227 29.4781 8.68639 31.0143 9.70741 34.2283Z" fill="#011F3F" stroke="#011F3F" stroke-width="2"/>
<path d="M44.4222 16.6516C44.1692 18.1917 43.4784 19.4709 42.6135 20.3029C41.7487 21.1349 40.7645 21.4794 39.8513 21.3293C38.938 21.1793 38.1158 20.5379 37.5627 19.4731C37.0094 18.408 36.7643 16.975 37.0174 15.4349C37.2704 13.8949 37.9611 12.6157 38.8261 11.7836C39.6909 10.9517 40.6751 10.6072 41.5883 10.7572C42.5016 10.9073 43.3238 11.5486 43.8769 12.6135C44.4302 13.6786 44.6752 15.1115 44.4222 16.6516Z" fill="#0F3E48" stroke="#0F3E48" stroke-width="2"/>
<path d="M16.9726 17.079C17.4641 19.3582 17.2709 21.5138 16.6121 23.1444C15.9508 24.7812 14.8742 25.7888 13.6324 26.0566C12.3907 26.3243 10.9944 25.8498 9.71749 24.631C8.44529 23.4166 7.38102 21.5322 6.88959 19.253C6.39817 16.9737 6.59138 14.8182 7.25016 13.1875C7.91142 11.5507 8.98808 10.5431 10.2298 10.2753C11.4716 10.0076 12.8678 10.4821 14.1447 11.7009C15.417 12.9153 16.4812 14.7997 16.9726 17.079Z" fill="#011F3F" stroke="#011F3F" stroke-width="2"/>
<path d="M31.6801 10.1055C31.7764 12.4352 31.2192 14.5264 30.2925 16.0212C29.3624 17.5215 28.1299 18.3312 26.8607 18.3837C25.5915 18.4362 24.2964 17.7311 23.2455 16.3127C22.1985 14.8996 21.4705 12.8615 21.3741 10.5319C21.2777 8.20226 21.835 6.11101 22.7617 4.61624C23.6918 3.11588 24.9243 2.30618 26.1935 2.25368C27.4627 2.20118 28.7578 2.90632 29.8087 4.32472C30.8556 5.73785 31.5837 7.77593 31.6801 10.1055Z" fill="#011F3F" stroke="#011F3F" stroke-width="2"/>
<path d="M23.1094 79.3785C15.0664 78.978 7.29644 25.8204 27.2029 22.8205C47.1094 19.8206 57.1095 55.3785 36.1095 51.3205C15.1095 47.2625 31.1525 79.7791 23.1094 79.3785Z" fill="#011F3F"/>
<path d="M23.1094 79.3785C15.0664 78.978 7.29644 25.8204 27.2029 22.8205C47.1094 19.8206 57.1095 55.3785 36.1095 51.3205C15.1095 47.2625 31.1525 79.7791 23.1094 79.3785Z" fill="#011F3F"/>
<path d="M23.1094 79.3785C15.0664 78.978 7.29644 25.8204 27.2029 22.8205C47.1094 19.8206 57.1095 55.3785 36.1095 51.3205C15.1095 47.2625 31.1525 79.7791 23.1094 79.3785Z" stroke="#011F3F" stroke-width="2"/>
<path d="M23.1094 79.3785C15.0664 78.978 7.29644 25.8204 27.2029 22.8205C47.1094 19.8206 57.1095 55.3785 36.1095 51.3205C15.1095 47.2625 31.1525 79.7791 23.1094 79.3785Z" stroke="#011F3F" stroke-width="2"/>
</svg>
